<svg width="120" height="120" viewBox="0 0 120 120" fill="none" xmlns="http://www.w3.org/2000/svg">
<path d="M59.9881 79.687C50.5101 79.687 42.6039 72.976 40.7271 64.0593H9.19629C11.425 89.9881 33.1728 110.332 59.6596 110.332C86.1464 110.332 107.918 89.9881 110.123 64.0593H79.2491C77.3722 72.9995 69.4661 79.687 59.9881 79.687Z" fill="white"/>
<path d="M71.2495 109.018C92.27 104.091 108.247 86.093 110.123 64.0593H97.6894C96.446 84.0515 85.9592 100.993 71.2495 109.018Z" fill="#DFDFDF"/>
<path d="M71.6013 59.9999C71.5778 59.9999 71.5778 59.9999 71.6013 59.9999C71.5778 58.5685 71.3197 57.2076 70.8505 55.9405C69.2083 51.529 64.962 48.4082 59.9884 48.4082C55.0148 48.4082 50.7684 51.5525 49.1262 55.9405C48.657 57.2076 48.3989 58.5685 48.3989 59.9999H48.4224C48.4224 61.4313 48.6804 62.7922 49.1497 64.0594C50.7919 68.4708 55.0382 71.5916 60.0118 71.5916C64.9854 71.5916 69.2318 68.4473 70.874 64.0594C71.3432 62.8157 71.6013 61.4313 71.6013 59.9999Z" fill="white"/>
<path d="M60.0119 40.3362C69.4899 40.3362 77.396 47.0472 79.2729 55.9639H110.804C108.575 30.0116 86.8271 9.66748 60.3169 9.66748C33.8066 9.66748 12.0823 30.0116 9.85352 55.9405H40.7509C42.6277 47.0238 50.5339 40.3362 60.0119 40.3362Z" fill="#FF1C1C"/>
<path d="M97.6894 55.9407H110.78C108.857 33.5316 92.3404 15.2758 70.7803 10.7471C85.748 18.6548 96.4225 35.7608 97.6894 55.9407Z" fill="#DF1818"/>
<path d="M60.3167 9.66758C86.827 9.66758 108.575 30.0117 110.78 55.9406H79.2493C77.3724 47.0239 69.4663 40.3129 59.9883 40.3129C50.5103 40.3129 42.6041 47.0239 40.7273 55.9406H9.85337C12.0821 30.0117 33.8299 9.66758 60.3167 9.66758ZM70.8504 55.9406C71.3196 57.2077 71.5777 58.5686 71.5777 60H71.6012C71.6012 61.4314 71.3431 62.7923 70.8739 64.0594C69.2317 68.4709 64.9853 71.5917 60.0117 71.5917C55.0381 71.5917 50.7918 68.4474 49.1496 64.0594C48.6803 62.7923 48.4223 61.4314 48.4223 60H48.3988C48.3988 58.5686 48.6569 57.2077 49.1261 55.9406C50.7683 51.5291 55.0147 48.4083 59.9883 48.4083C64.9619 48.4083 69.2082 51.5526 70.8504 55.9406ZM59.6598 110.356C33.1496 110.356 11.4018 90.0117 9.19648 64.0829H40.7273C42.6041 72.9996 50.5103 79.7106 59.9883 79.7106C69.4663 79.7106 77.3724 72.9996 79.2493 64.0829H110.147C107.918 89.9883 86.1701 110.356 59.6598 110.356ZM59.9883 0C26.8622 0 0 26.8674 0 60C0 93.1326 26.8622 120 59.9883 120C93.1144 120 120 93.156 120 60C120 26.844 93.1378 0 59.9883 0Z" fill="black"/>
</svg>
